<?xml version="1.0" encoding="UTF-8" standalone="no"?>
<svg
   xmlns:dc="http://purl.org/dc/elements/1.1/"
   xmlns:cc="http://creativecommons.org/ns#"
   xmlns:rdf="http://www.w3.org/1999/02/22-rdf-syntax-ns#"
   xmlns:svg="http://www.w3.org/2000/svg"
   xmlns="http://www.w3.org/2000/svg"
   xmlns:sodipodi="http://sodipodi.sourceforge.net/DTD/sodipodi-0.dtd"
   xmlns:inkscape="http://www.inkscape.org/namespaces/inkscape"
   width="210mm"
   height="297mm"
   viewBox="0 0 210 297"
   version="1.1"
   id="svg8"
   inkscape:version="1.0.1 (c497b03c, 2020-09-10)"
   sodipodi:docname="logo.svg">
  <defs
     id="defs2" />
  <sodipodi:namedview
     id="base"
     pagecolor="#ffffff"
     bordercolor="#666666"
     borderopacity="1.0"
     inkscape:pageopacity="0.0"
     inkscape:pageshadow="2"
     inkscape:zoom="0.98994949"
     inkscape:cx="506.69753"
     inkscape:cy="569.7626"
     inkscape:document-units="mm"
     inkscape:current-layer="layer1"
     inkscape:document-rotation="0"
     showgrid="false"
     inkscape:window-width="2560"
     inkscape:window-height="1387"
     inkscape:window-x="647"
     inkscape:window-y="25"
     inkscape:window-maximized="1" />
  <metadata
     id="metadata5">
    <rdf:RDF>
      <cc:Work
         rdf:about="">
        <dc:format>image/svg+xml</dc:format>
        <dc:type
           rdf:resource="http://purl.org/dc/dcmitype/StillImage" />
        <dc:title></dc:title>
      </cc:Work>
    </rdf:RDF>
  </metadata>
  <g
     inkscape:label="Layer 1"
     inkscape:groupmode="layer"
     id="layer1">
    <path
       style="fill:#000000;stroke-width:0.264583"
       d="m 78.199716,190.3327 c 0,-2.41065 0.0682,-2.91042 0.39688,-2.91042 0.21828,0 0.39687,0.12007 0.39687,0.26682 0,0.16543 0.18593,0.15072 0.48923,-0.0387 1.28275,-0.80109 2.62813,0.57022 2.29605,2.34031 -0.2331,1.24258 -0.8446,1.74852 -1.90528,1.57639 -0.85396,-0.13858 -0.88,-0.11589 -0.88,0.76661 0,0.63197 -0.12108,0.9094 -0.39687,0.9094 -0.32873,0 -0.39688,-0.49977 -0.39688,-2.91041 z m 2.63051,0.41534 c 0.45031,-0.54259 0.24156,-2.28728 -0.31541,-2.63615 -0.71854,-0.45008 -1.37446,0.11745 -1.47228,1.27388 -0.0914,1.08061 0.29131,1.74068 1.00926,1.74068 0.25541,0 0.6057,-0.17029 0.77843,-0.37841 z m -9.43824,1.21382 c -0.18896,-0.11846 -0.17817,-0.266 0.0338,-0.4625 0.22571,-0.20923 0.39626,-0.19759 0.6204,0.0424 0.23661,0.25329 0.22867,0.36178 -0.0338,0.46251 -0.18862,0.0724 -0.46779,0.0533 -0.62039,-0.0424 z m 1.64835,-0.62582 c -1.72354,-0.98845 -1.80568,-3.97446 -0.13311,-4.83938 2.29472,-1.18664 4.56349,0.53572 4.05496,3.07837 -0.32099,1.60497 -2.49319,2.58035 -3.92185,1.76101 z m 2.7035,-0.78662 c 0.52775,-0.43799 0.69126,-1.94782 0.29829,-2.75437 -0.69971,-1.43612 -2.85774,-1.3823 -3.42819,0.0855 -0.40623,1.04525 0.002,2.48927 0.82328,2.91108 0.67788,0.34823 1.72806,0.23795 2.30662,-0.24222 z m 6.973,0.40905 c -0.3016,-0.38342 -0.54837,-1.02221 -0.54837,-1.41952 0,-1.03617 0.9343,-2.11667 1.83028,-2.11667 0.84453,0 1.48897,0.60908 1.74966,1.65365 l 0.18159,0.7276 h -1.48389 c -1.04116,0 -1.48389,0.10262 -1.48389,0.34396 0,0.86191 1.40803,1.31718 2.05934,0.66587 0.1722,-0.1722 0.40418,-0.222 0.51552,-0.11066 0.31018,0.31017 -0.73387,0.95291 -1.54789,0.95291 -0.46699,0 -0.91863,-0.24746 -1.27235,-0.69714 z m 2.3153,-2.11877 c -0.13459,-0.68388 -0.9243,-1.07281 -1.47461,-0.72625 -0.25466,0.16038 -0.50152,0.48719 -0.54856,0.72625 -0.0683,0.34703 0.13564,0.43466 1.01158,0.43466 0.87595,0 1.07989,-0.0876 1.01159,-0.43466 z m 1.89883,0.69925 c 0,-1.70509 0.0772,-2.11667 0.39688,-2.11667 0.21828,0 0.39687,0.14288 0.39687,0.3175 0,0.24694 0.0706,0.24694 0.3175,0 0.17463,-0.17462 0.62706,-0.3175 1.00542,-0.3175 1.06938,0 1.32291,0.4665 1.32291,2.43417 0,1.42287 -0.083,1.79916 -0.39687,1.79916 -0.31227,0 -0.39688,-0.3684 -0.39688,-1.72809 0,-1.35583 -0.0932,-1.76388 -0.43283,-1.89419 -0.86034,-0.33014 -1.28297,0.28757 -1.36573,1.99615 -0.0586,1.20916 -0.1773,1.62613 -0.46302,1.62613 -0.30392,0 -0.38425,-0.44248 -0.38425,-2.11666 z m 7.13096,1.63035 c -0.38819,-0.31434 -0.52462,-0.60921 -0.3858,-0.83384 0.17038,-0.27567 0.28265,-0.25469 0.54311,0.10151 0.46416,0.63478 1.97816,0.82274 2.6336,0.32698 0.77178,-0.58376 0.26002,-1.22797 -1.33682,-1.68283 -1.93495,-0.55117 -2.45603,-1.43786 -1.4413,-2.45259 0.34239,-0.34239 0.88194,-0.52917 1.52863,-0.52917 0.98567,0 2.17554,0.58705 2.17554,1.07334 0,0.38949 -0.69288,0.29306 -1.05834,-0.14729 -0.70493,-0.84939 -2.66742,-0.20134 -2.29886,0.75912 0.0779,0.20294 0.75202,0.51542 1.49809,0.6944 1.59898,0.38359 2.34235,1.2154 1.87185,2.09454 -0.6134,1.14614 -2.64858,1.47126 -3.7297,0.59583 z m 4.77529,-2.4241 c 0,-2.41065 0.0682,-2.91042 0.39688,-2.91042 0.28978,0 0.39687,0.29986 0.39687,1.11125 0,0.86431 0.0706,1.04069 0.3175,0.79375 0.174634,-0.17462 0.627064,-0.3175 1.005424,-0.3175 1.06938,0 1.32291,0.4665 1.32291,2.43417 0,1.42287 -0.083,1.79916 -0.39687,1.79916 -0.31227,0 -0.39688,-0.3684 -0.39688,-1.72809 0,-1.35583 -0.0932,-1.76388 -0.43283,-1.89419 -0.86034,-0.33014 -1.282974,0.28757 -1.365734,1.99615 -0.0586,1.20916 -0.1773,1.62613 -0.46302,1.62613 -0.31266,0 -0.38425,-0.54227 -0.38425,-2.91041 z m 4.781704,2.21327 c -1.38104,-1.75571 0.04,-4.08276 2.0595,-3.37255 1.18401,0.4164 1.43615,2.63371 0.41555,3.65432 -0.65539,0.65538 -1.84436,0.52002 -2.47505,-0.28177 z m 2.08214,-0.21043 c 0.45031,-0.54259 0.24157,-2.28728 -0.3154,-2.63615 -0.71854,-0.45008 -1.37447,0.11745 -1.47228,1.27388 -0.0914,1.08061 0.2913,1.74068 1.00926,1.74068 0.2554,0 0.60569,-0.17029 0.77842,-0.37841 z m 2.02801,0.48906 c -0.0883,-0.23018 -0.1606,-1.0537 -0.1606,-1.83003 0,-0.87871 -0.12484,-1.46399 -0.33073,-1.55051 -0.23684,-0.0995 -0.19929,-0.22218 0.13229,-0.43207 0.25466,-0.1612 0.46302,-0.46576 0.46302,-0.67682 0,-0.21105 0.11907,-0.38372 0.26459,-0.38372 0.14552,0 0.26458,0.23812 0.26458,0.52916 0,0.29398 0.17639,0.52917 0.39687,0.52917 0.21829,0 0.39688,0.11906 0.39688,0.26458 0,0.14552 -0.17859,0.26459 -0.39688,0.26459 -0.30868,0 -0.39687,0.35277 -0.39687,1.5875 0,1.23472 0.0882,1.5875 0.39687,1.5875 0.21829,0 0.39688,0.11906 0.39688,0.26458 0,0.43443 -1.253,0.29926 -1.4269,-0.15393 z m 5.11071,-0.35488 c -0.63323,-0.63323 -0.77339,-0.99657 -0.77339,-2.00473 0,-2.15435 1.75092,-3.30646 3.82601,-2.51751 0.6682,0.25405 1.14687,0.94012 0.85768,1.2293 -0.0793,0.0793 -0.49724,-0.11685 -0.92876,-0.43589 -1.12348,-0.83062 -2.34469,-0.5339 -2.85791,0.6944 -0.46593,1.11514 -0.25059,2.06604 0.6236,2.75368 0.87929,0.69165 1.54065,0.66276 2.30406,-0.10066 0.68462,-0.68461 1.37082,-0.58677 0.84912,0.12107 -0.92422,1.25396 -2.78273,1.37801 -3.90041,0.26034 z m 5.04744,-2.13702 c 0,-2.41065 0.0682,-2.91042 0.39688,-2.91042 0.32872,0 0.39687,0.49977 0.39687,2.91042 0,2.41064 -0.0682,2.91041 -0.39687,2.91041 -0.32873,0 -0.39688,-0.49977 -0.39688,-2.91041 z m 1.87129,2.21327 c -1.38105,-1.75571 0.04,-4.08276 2.05949,-3.37255 1.18402,0.4164 1.43616,2.63371 0.41555,3.65432 -0.65538,0.65538 -1.84436,0.52002 -2.47504,-0.28177 z m 2.08214,-0.21043 c 0.45031,-0.54259 0.24156,-2.28728 -0.31541,-2.63615 -0.71854,-0.45008 -1.37446,0.11745 -1.47228,1.27388 -0.0914,1.08061 0.29131,1.74068 1.00926,1.74068 0.2554,0 0.6057,-0.17029 0.77843,-0.37841 z m 2.50973,0.35727 c -1.1248,-1.24289 -0.32329,-3.68303 1.20976,-3.68303 0.63809,0 1.5875,0.68495 1.5875,1.14531 0,0.35136 -0.74052,0.1688 -0.88943,-0.21927 -0.18275,-0.47623 -0.99712,-0.52116 -1.43891,-0.0794 -0.38993,0.38993 -0.41345,1.65467 -0.0436,2.34572 0.32456,0.60644 1.2659,0.6794 1.48252,0.1149 0.15986,-0.41659 0.88943,-0.55874 0.88943,-0.1733 0,0.43995 -0.97978,1.09934 -1.63347,1.09934 -0.36617,0 -0.88988,-0.24763 -1.16379,-0.5503 z m 3.59101,-2.36011 c 0,-2.41065 0.0682,-2.91042 0.39687,-2.91042 0.3127,0 0.39876,0.37877 0.40575,1.78594 l 0.009,1.78594 0.81054,-0.99219 c 1.04591,-1.28029 1.8746,-1.37857 0.90498,-0.10732 -0.37121,0.48668 -0.67493,0.97556 -0.67493,1.08641 0,0.11084 0.36719,0.66515 0.81599,1.23179 0.59183,0.74725 0.70455,1.03026 0.41033,1.03026 -0.2231,0 -0.7226,-0.41556 -1.11,-0.92346 -0.7956,-1.0431 -1.17464,-0.9962 -1.17464,0.14533 0,0.51529 -0.13407,0.77813 -0.39688,0.77813 -0.32872,0 -0.39687,-0.49977 -0.39687,-2.91041 z m -16.85244,-5.9527 c -0.53467,-0.3745 -1.50279,-0.9231 -5.6892,-3.22384 -0.97452,-0.53557 -1.7183,-1.0604 -1.65286,-1.16629 0.25085,-0.40588 7.55967,-4.52811 7.72872,-4.35905 0.098,0.098 0.14283,0.58851 0.0996,1.09003 l -0.0786,0.91185 h 12.58798 12.58798 v -13.22917 -13.22917 h 2.38125 2.38125 v 15.61042 15.61042 h -14.9756 -14.9756 l 0.0947,1.19062 c 0.0521,0.65485 0.0906,1.19063 0.0855,1.19063 -0.005,0 -0.26388,-0.17841 -0.57519,-0.39645 z M 59.414286,167.57853 v -13.22917 h -1.05833 c -0.58208,0 -1.05833,-0.10223 -1.05833,-0.22719 0,-0.20607 2.96197,-5.63634 3.89758,-7.14556 0.44805,-0.72273 0.72076,-0.54861 1.60191,1.02276 0.28561,0.50932 1.18913,2.10216 2.00782,3.53964 0.81869,1.43749 1.48853,2.65788 1.48853,2.71198 0,0.0541 -0.47625,0.0984 -1.05833,0.0984 h -1.05834 v 10.84792 10.84792 h 16.53646 16.53646 v 2.38125 2.38125 h -18.91771 -18.91772 z m 12.1047,1.0431 -3.37344,-3.43487 v -7.72668 -7.72669 l 1.64601,-1.66076 1.646,-1.66076 -1.646,-1.66077 -1.64601,-1.66076 v -7.66961 -7.66962 l 3.37712,-3.36961 3.37712,-3.36962 h 7.86508 7.86508 l 3.30989,3.30988 3.30988,3.30989 v 7.77529 7.77529 l -1.64557,1.61525 -1.64557,1.61526 1.64557,1.66032 1.64557,1.66033 v 7.76905 7.76904 l -3.41681,3.40248 -3.4168,3.40249 -7.76184,-0.01 -7.76184,-0.01 z m 3.23886,-11.10555 0.002,-7.81349 -1.5875,-1.57093 -1.5875,-1.57094 -1.5875,1.57094 -1.5875,1.57093 -0.002,7.81349 -0.002,7.81349 1.65551,1.49739 1.6555,1.49738 1.51907,-1.49738 1.51907,-1.49739 0.002,-7.81349 z m 15.6127,0.008 v -7.67291 h -7.67291 -7.67292 v 7.67291 7.67292 h 7.67292 7.67291 z m -17.13944,-12.89015 1.52903,-1.51307 -0.007,-7.68119 -0.007,-7.6812 -1.53069,-1.64457 -1.5307,-1.64457 -1.63701,1.65169 -1.637,1.65169 v 7.65812 7.65812 l 1.51307,1.52902 c 0.83219,0.84097 1.57288,1.52903 1.64597,1.52903 0.0731,0 0.82096,-0.68088 1.66193,-1.51307 z m 17.13944,-9.20254 v -7.54063 h -7.67291 -7.67292 v 7.54063 7.54061 h 7.67292 7.67291 z m 16.602614,33.22026 -3.37344,-3.41497 v -7.75178 -7.75179 l 1.646,-1.66076 1.646,-1.66076 -1.646,-1.66077 -1.646,-1.66076 v -7.71065 -7.71065 l 3.3431,-3.32858 3.3431,-3.32858 h 7.84662 7.84662 l 3.36236,3.34048 3.36237,3.34049 v 7.71351 7.7135 l -1.68753,1.67252 -1.68752,1.67253 1.68752,1.60485 1.68753,1.60485 v 7.76301 7.76301 l -3.45127,3.43791 -3.45127,3.43791 -7.72738,-0.005 -7.72737,-0.005 z m 18.85156,-11.12757 v -7.67291 h -7.67292 -7.67291 v 7.67291 7.67292 h 7.67291 7.67292 z m 1.59921,-9.47302 1.5213,-1.53552 -1.54569,-1.63948 -1.54569,-1.63947 h -7.72164 -7.72164 l -1.59695,1.6019 -1.59695,1.60191 1.55668,1.57309 1.55668,1.57309 h 7.7863 7.7863 z m -1.59921,-12.61967 v -7.54063 h -7.67292 -7.67291 v 7.54063 7.54061 h 7.67291 7.67292 z m 11.00165,7.28318 c -1.24872,-2.17888 -2.2704,-4.02434 -2.2704,-4.10104 0,-0.0767 0.47625,-0.13943 1.05833,-0.13943 h 1.05834 v -10.84792 -10.84792 h -16.53646 -16.53646 v -2.38125 -2.38126 h 18.91771 18.91771 v 13.21468 13.21467 l 1.18145,0.0806 1.18145,0.0806 -1.07691,1.85208 c -0.59231,1.01865 -1.34525,2.32833 -1.67321,2.91042 -0.32797,0.58208 -0.84282,1.49341 -1.14412,2.02518 -0.3013,0.53176 -0.47689,1.03777 -0.39019,1.12447 0.0867,0.0867 0.0284,0.15764 -0.1296,0.15764 -0.15798,0 -1.30892,-1.78272 -2.55764,-3.9616 z M 59.414286,127.62618 v -15.61043 h 14.94897 14.94896 v -1.05833 c 0,-0.58208 0.0538,-1.05833 0.11951,-1.05833 0.12022,0 6.08249,3.41571 7.25686,4.15737 l 0.6295,0.39755 -1.29096,0.71054 c -0.71002,0.3908 -2.00533,1.11061 -2.87845,1.59959 -0.87313,0.48897 -1.91256,1.05691 -2.30985,1.26209 -0.39729,0.20517 -0.79126,0.48456 -0.87551,0.62087 -0.34678,0.56111 -0.6511,0.18229 -0.6511,-0.8105 v -1.05834 h -12.56771 -12.56771 v 13.22917 13.22916 h -2.38126 -2.38125 z"
       id="path142"
       inkscape:export-xdpi="96"
       inkscape:export-ydpi="96" />
  </g>
</svg>
